<svg width="5" height="23" viewBox="0 0 5 23" fill="none" xmlns="http://www.w3.org/2000/svg">
<path d="M3.9502 0.181818L3.73713 15.8636H1.26554L1.05247 0.181818H3.9502ZM2.50133 22.1705C1.97576 22.1705 1.52477 21.9822 1.14835 21.6058C0.771928 21.2294 0.583718 20.7784 0.583718 20.2528C0.583718 19.7273 0.771928 19.2763 1.14835 18.8999C1.52477 18.5234 1.97576 18.3352 2.50133 18.3352C3.0269 18.3352 3.47789 18.5234 3.85431 18.8999C4.23074 19.2763 4.41895 19.7273 4.41895 20.2528C4.41895 20.6009 4.33017 20.9205 4.15261 21.2116C3.98216 21.5028 3.75133 21.7372 3.46014 21.9148C3.17605 22.0852 2.85645 22.1705 2.50133 22.1705Z" fill="#FAFF00"/>
</svg>
