<svg width="116" height="20" viewBox="0 0 116 20" fill="none" xmlns="http://www.w3.org/2000/svg">
<rect width="116" height="20" fill="#E5E5E5"/>
<g clip-path="url(#clip0_0_1)">
<rect width="1728" height="1117" transform="translate(-410 -32)" fill="#2B3C51"/>
<rect x="-81" y="-29" width="1399" height="80" fill="#223041"/>
<path d="M16.5426 9.90909C16.5426 11.8267 16.1964 13.4839 15.5039 14.8807C14.8114 16.2775 13.8615 17.3546 12.6541 18.1122C11.4467 18.8698 10.0677 19.2486 8.51705 19.2486C6.96638 19.2486 5.58736 18.8698 4.37997 18.1122C3.17259 17.3546 2.22266 16.2775 1.53018 14.8807C0.837713 13.4839 0.491477 11.8267 0.491477 9.90909C0.491477 7.99148 0.837713 6.33428 1.53018 4.9375C2.22266 3.54072 3.17259 2.46354 4.37997 1.70597C5.58736 0.94839 6.96638 0.569602 8.51705 0.569602C10.0677 0.569602 11.4467 0.94839 12.6541 1.70597C13.8615 2.46354 14.8114 3.54072 15.5039 4.9375C16.1964 6.33428 16.5426 7.99148 16.5426 9.90909ZM14.4119 9.90909C14.4119 8.33475 14.1486 7.00604 13.6218 5.92294C13.101 4.83984 12.3937 4.02012 11.5 3.46378C10.6122 2.90743 9.6179 2.62926 8.51705 2.62926C7.41619 2.62926 6.41892 2.90743 5.52521 3.46378C4.63743 4.02012 3.93016 4.83984 3.40341 5.92294C2.88258 7.00604 2.62216 8.33475 2.62216 9.90909C2.62216 11.4834 2.88258 12.8121 3.40341 13.8952C3.93016 14.9783 4.63743 15.7981 5.52521 16.3544C6.41892 16.9107 7.41619 17.1889 8.51705 17.1889C9.6179 17.1889 10.6122 16.9107 11.5 16.3544C12.3937 15.7981 13.101 14.9783 13.6218 13.8952C14.1486 12.8121 14.4119 11.4834 14.4119 9.90909ZM30.1879 5.36364C30.0813 4.46402 29.6493 3.76562 28.8917 3.26847C28.1341 2.77131 27.2049 2.52273 26.104 2.52273C25.2991 2.52273 24.5948 2.65293 23.9911 2.91335C23.3933 3.17377 22.9258 3.53184 22.5884 3.98757C22.257 4.4433 22.0913 4.96117 22.0913 5.54119C22.0913 6.02651 22.2067 6.44377 22.4375 6.79297C22.6742 7.13624 22.9761 7.42329 23.343 7.65412C23.71 7.87902 24.0947 8.06546 24.4972 8.21342C24.8996 8.35547 25.2695 8.47088 25.6069 8.55966L27.4535 9.05682C27.927 9.18111 28.4537 9.35275 29.0337 9.57173C29.6197 9.79072 30.179 10.0896 30.7116 10.4684C31.2502 10.8413 31.6941 11.3207 32.0433 11.9066C32.3925 12.4925 32.5671 13.2116 32.5671 14.0639C32.5671 15.0464 32.3097 15.9342 31.7947 16.7273C31.2857 17.5204 30.54 18.1507 29.5575 18.6183C28.581 19.0858 27.3943 19.3196 25.9975 19.3196C24.6954 19.3196 23.5679 19.1095 22.6151 18.6893C21.6681 18.2691 20.9223 17.6831 20.3778 16.9315C19.8393 16.1798 19.5344 15.3068 19.4634 14.3125H21.7362C21.7953 14.9991 22.0262 15.5672 22.4286 16.017C22.837 16.4609 23.3519 16.7924 23.9734 17.0114C24.6007 17.2244 25.2754 17.331 25.9975 17.331C26.8379 17.331 27.5926 17.1948 28.2614 16.9226C28.9302 16.6444 29.4599 16.2597 29.8505 15.7685C30.2411 15.2713 30.4364 14.6913 30.4364 14.0284C30.4364 13.4247 30.2678 12.9335 29.9304 12.5547C29.593 12.1759 29.1491 11.8681 28.5987 11.6314C28.0483 11.3946 27.4535 11.1875 26.8143 11.0099L24.5771 10.3707C23.1566 9.96236 22.0321 9.37938 21.2035 8.6218C20.3749 7.86423 19.9606 6.87287 19.9606 5.64773C19.9606 4.62973 20.2358 3.74195 20.7862 2.98438C21.3426 2.22088 22.0883 1.62902 23.0234 1.20881C23.9645 0.78267 25.015 0.569602 26.1751 0.569602C27.3469 0.569602 28.3886 0.77971 29.3001 1.19993C30.2115 1.61423 30.9336 2.18241 31.4663 2.90447C32.0049 3.62654 32.2889 4.44626 32.3185 5.36364H30.1879Z" fill="#00FFA3"/>
<path d="M46.1302 5.36364C46.0237 4.46402 45.5916 3.76562 44.8341 3.26847C44.0765 2.77131 43.1473 2.52273 42.0464 2.52273C41.2415 2.52273 40.5372 2.65293 39.9335 2.91335C39.3357 3.17377 38.8682 3.53184 38.5308 3.98757C38.1994 4.4433 38.0336 4.96117 38.0336 5.54119C38.0336 6.02651 38.1491 6.44377 38.3799 6.79297C38.6166 7.13624 38.9185 7.42329 39.2854 7.65412C39.6524 7.87902 40.0371 8.06546 40.4395 8.21342C40.842 8.35547 41.2119 8.47088 41.5493 8.55966L43.3959 9.05682C43.8693 9.18111 44.3961 9.35275 44.9761 9.57173C45.5621 9.79072 46.1214 10.0896 46.654 10.4684C47.1926 10.8413 47.6365 11.3207 47.9857 11.9066C48.3349 12.4925 48.5095 13.2116 48.5095 14.0639C48.5095 15.0464 48.252 15.9342 47.7371 16.7273C47.2281 17.5204 46.4824 18.1507 45.4999 18.6183C44.5233 19.0858 43.3367 19.3196 41.9399 19.3196C40.6378 19.3196 39.5103 19.1095 38.5574 18.6893C37.6105 18.2691 36.8647 17.6831 36.3202 16.9315C35.7816 16.1798 35.4768 15.3068 35.4058 14.3125H37.6785C37.7377 14.9991 37.9685 15.5672 38.371 16.017C38.7794 16.4609 39.2943 16.7924 39.9157 17.0114C40.5431 17.2244 41.2178 17.331 41.9399 17.331C42.7803 17.331 43.5349 17.1948 44.2037 16.9226C44.8725 16.6444 45.4023 16.2597 45.7929 15.7685C46.1835 15.2713 46.3788 14.6913 46.3788 14.0284C46.3788 13.4247 46.2101 12.9335 45.8728 12.5547C45.5354 12.1759 45.0915 11.8681 44.5411 11.6314C43.9907 11.3946 43.3959 11.1875 42.7567 11.0099L40.5194 10.3707C39.099 9.96236 37.9745 9.37938 37.1459 8.6218C36.3173 7.86423 35.903 6.87287 35.903 5.64773C35.903 4.62973 36.1782 3.74195 36.7286 2.98438C37.2849 2.22088 38.0307 1.62902 38.9658 1.20881C39.9069 0.78267 40.9574 0.569602 42.1175 0.569602C43.2893 0.569602 44.331 0.77971 45.2425 1.19993C46.1539 1.61423 46.876 2.18241 47.4086 2.90447C47.9472 3.62654 48.2313 4.44626 48.2609 5.36364H46.1302ZM57.7757 5.36364V7.1392H50.709V5.36364H57.7757ZM52.7686 2.09659H54.8638V15.0938C54.8638 15.6856 54.9496 16.1295 55.1213 16.4254C55.2988 16.7154 55.5237 16.9107 55.796 17.0114C56.0742 17.1061 56.3671 17.1534 56.6749 17.1534C56.9057 17.1534 57.0951 17.1416 57.2431 17.1179C57.391 17.0883 57.5094 17.0646 57.5982 17.0469L58.0243 18.929C57.8823 18.9822 57.684 19.0355 57.4295 19.0888C57.175 19.148 56.8525 19.1776 56.4618 19.1776C55.87 19.1776 55.29 19.0503 54.7218 18.7958C54.1595 18.5413 53.6919 18.1536 53.3191 17.6328C52.9521 17.112 52.7686 16.455 52.7686 15.6619V2.09659ZM64.9402 19.3196C64.0761 19.3196 63.2918 19.1568 62.5875 18.8313C61.8832 18.4999 61.3239 18.0234 60.9096 17.402C60.4953 16.7746 60.2882 16.017 60.2882 15.1293C60.2882 14.348 60.4421 13.7147 60.7498 13.2294C61.0576 12.7382 61.4689 12.3535 61.9838 12.0753C62.4988 11.7971 63.0669 11.59 63.6884 11.4538C64.3158 11.3118 64.9461 11.1993 65.5794 11.1165C66.408 11.0099 67.0797 10.93 67.5946 10.8768C68.1155 10.8176 68.4943 10.7199 68.731 10.5838C68.9737 10.4477 69.095 10.2109 69.095 9.87358V9.80256C69.095 8.92661 68.8553 8.24598 68.3759 7.76065C67.9024 7.27533 67.1833 7.03267 66.2186 7.03267C65.2183 7.03267 64.4341 7.25166 63.8659 7.68963C63.2978 8.1276 62.8983 8.59517 62.6674 9.09233L60.6788 8.3821C61.0339 7.5535 61.5074 6.90838 62.0993 6.44673C62.697 5.97917 63.3481 5.65365 64.0524 5.47017C64.7626 5.28078 65.461 5.18608 66.1475 5.18608C66.5855 5.18608 67.0886 5.23935 67.6568 5.34588C68.2309 5.4465 68.7843 5.6566 69.3169 5.97621C69.8555 6.29581 70.3024 6.77817 70.6575 7.4233C71.0126 8.06842 71.1902 8.93253 71.1902 10.0156V19H69.095V17.1534H68.9885C68.8464 17.4493 68.6097 17.766 68.2782 18.1033C67.9468 18.4407 67.5059 18.7277 66.9554 18.9645C66.405 19.2012 65.7333 19.3196 64.9402 19.3196ZM65.2598 17.4375C66.0884 17.4375 66.7868 17.2747 67.3549 16.9492C67.929 16.6237 68.3611 16.2035 68.6511 15.6886C68.947 15.1737 69.095 14.6321 69.095 14.0639V12.1463C69.0062 12.2528 68.8109 12.3505 68.5091 12.4393C68.2131 12.5221 67.8699 12.5961 67.4792 12.6612C67.0945 12.7204 66.7187 12.7737 66.3517 12.821C65.9907 12.8625 65.6977 12.898 65.4728 12.9276C64.9283 12.9986 64.4193 13.114 63.9458 13.2738C63.4783 13.4277 63.0995 13.6615 62.8095 13.9751C62.5254 14.2829 62.3833 14.7031 62.3833 15.2358C62.3833 15.9638 62.6526 16.5142 63.1912 16.8871C63.7357 17.254 64.4252 17.4375 65.2598 17.4375ZM80.9447 5.36364V7.1392H73.8779V5.36364H80.9447ZM75.9376 2.09659H78.0328V15.0938C78.0328 15.6856 78.1186 16.1295 78.2902 16.4254C78.4678 16.7154 78.6927 16.9107 78.9649 17.0114C79.2431 17.1061 79.5361 17.1534 79.8438 17.1534C80.0747 17.1534 80.2641 17.1416 80.412 17.1179C80.56 17.0883 80.6784 17.0646 80.7671 17.0469L81.1933 18.929C81.0512 18.9822 80.853 19.0355 80.5985 19.0888C80.344 19.148 80.0214 19.1776 79.6308 19.1776C79.0389 19.1776 78.4589 19.0503 77.8907 18.7958C77.3285 18.5413 76.8609 18.1536 76.488 17.6328C76.1211 17.112 75.9376 16.455 75.9376 15.6619V2.09659ZM84.0963 19V5.36364H86.1915V19H84.0963ZM85.1617 3.09091C84.7533 3.09091 84.4011 2.95182 84.1052 2.67365C83.8152 2.39548 83.6702 2.06108 83.6702 1.67045C83.6702 1.27983 83.8152 0.945431 84.1052 0.667258C84.4011 0.389086 84.7533 0.25 85.1617 0.25C85.57 0.25 85.9192 0.389086 86.2093 0.667258C86.5052 0.945431 86.6531 1.27983 86.6531 1.67045C86.6531 2.06108 86.5052 2.39548 86.2093 2.67365C85.9192 2.95182 85.57 3.09091 85.1617 3.09091ZM95.5687 19.2841C94.3377 19.2841 93.2575 18.9911 92.3283 18.4052C91.405 17.8192 90.6829 16.9995 90.1621 15.946C89.6472 14.8925 89.3897 13.6615 89.3897 12.2528C89.3897 10.8324 89.6472 9.59245 90.1621 8.53303C90.6829 7.4736 91.405 6.65092 92.3283 6.06499C93.2575 5.47905 94.3377 5.18608 95.5687 5.18608C96.7998 5.18608 97.877 5.47905 98.8002 6.06499C99.7295 6.65092 100.452 7.4736 100.966 8.53303C101.487 9.59245 101.748 10.8324 101.748 12.2528C101.748 13.6615 101.487 14.8925 100.966 15.946C100.452 16.9995 99.7295 17.8192 98.8002 18.4052C97.877 18.9911 96.7998 19.2841 95.5687 19.2841ZM95.5687 17.402C96.5038 17.402 97.2733 17.1623 97.877 16.6829C98.4806 16.2035 98.9275 15.5732 99.2175 14.7919C99.5075 14.0107 99.6525 13.1643 99.6525 12.2528C99.6525 11.3414 99.5075 10.4921 99.2175 9.7049C98.9275 8.91773 98.4806 8.28149 97.877 7.79616C97.2733 7.31084 96.5038 7.06818 95.5687 7.06818C94.6336 7.06818 93.8642 7.31084 93.2605 7.79616C92.6568 8.28149 92.2099 8.91773 91.9199 9.7049C91.6299 10.4921 91.4849 11.3414 91.4849 12.2528C91.4849 13.1643 91.6299 14.0107 91.9199 14.7919C92.2099 15.5732 92.6568 16.2035 93.2605 16.6829C93.8642 17.1623 94.6336 17.402 95.5687 17.402ZM107.041 10.7969V19H104.946V5.36364H106.97V7.49432H107.148C107.467 6.80185 107.953 6.2455 108.604 5.82528C109.255 5.39915 110.095 5.18608 111.125 5.18608C112.048 5.18608 112.856 5.37547 113.549 5.75426C114.241 6.12713 114.78 6.69531 115.164 7.45881C115.549 8.21638 115.741 9.17519 115.741 10.3352V19H113.646V10.4773C113.646 9.40601 113.368 8.5715 112.812 7.97372C112.255 7.37003 111.492 7.06818 110.521 7.06818C109.852 7.06818 109.255 7.21319 108.728 7.5032C108.207 7.79321 107.796 8.21638 107.494 8.77273C107.192 9.32907 107.041 10.0038 107.041 10.7969Z" fill="white"/>
</g>
<defs>
<clipPath id="clip0_0_1">
<rect width="1728" height="1117" fill="white" transform="translate(-410 -32)"/>
</clipPath>
</defs>
</svg>
