<svg width="51" height="37" viewBox="0 0 51 37" fill="none" xmlns="http://www.w3.org/2000/svg">
<rect width="51" height="37" fill="#E5E5E5"/>
<g clip-path="url(#clip0_0_1)">
<rect width="1728" height="1117" transform="translate(-839 -23)" fill="#2B3C51"/>
<rect x="-510" y="-20" width="1399" height="80" fill="#223041"/>
<path d="M25.5499 18.9091C25.5499 20.8267 25.2037 22.4839 24.5112 23.8807C23.8188 25.2775 22.8688 26.3546 21.6614 27.1122C20.4541 27.8698 19.075 28.2486 17.5244 28.2486C15.9737 28.2486 14.5947 27.8698 13.3873 27.1122C12.1799 26.3546 11.23 25.2775 10.5375 23.8807C9.84504 22.4839 9.4988 20.8267 9.4988 18.9091C9.4988 16.9915 9.84504 15.3343 10.5375 13.9375C11.23 12.5407 12.1799 11.4635 13.3873 10.706C14.5947 9.94839 15.9737 9.5696 17.5244 9.5696C19.075 9.5696 20.4541 9.94839 21.6614 10.706C22.8688 11.4635 23.8188 12.5407 24.5112 13.9375C25.2037 15.3343 25.5499 16.9915 25.5499 18.9091ZM23.4193 18.9091C23.4193 17.3348 23.1559 16.006 22.6291 14.9229C22.1083 13.8398 21.401 13.0201 20.5073 12.4638C19.6195 11.9074 18.6252 11.6293 17.5244 11.6293C16.4235 11.6293 15.4262 11.9074 14.5325 12.4638C13.6448 13.0201 12.9375 13.8398 12.4107 14.9229C11.8899 16.006 11.6295 17.3348 11.6295 18.9091C11.6295 20.4834 11.8899 21.8121 12.4107 22.8952C12.9375 23.9783 13.6448 24.7981 14.5325 25.3544C15.4262 25.9107 16.4235 26.1889 17.5244 26.1889C18.6252 26.1889 19.6195 25.9107 20.5073 25.3544C21.401 24.7981 22.1083 23.9783 22.6291 22.8952C23.1559 21.8121 23.4193 20.4834 23.4193 18.9091ZM39.1952 14.3636C39.0886 13.464 38.6566 12.7656 37.899 12.2685C37.1414 11.7713 36.2122 11.5227 35.1114 11.5227C34.3064 11.5227 33.6021 11.6529 32.9984 11.9134C32.4007 12.1738 31.9331 12.5318 31.5957 12.9876C31.2643 13.4433 31.0986 13.9612 31.0986 14.5412C31.0986 15.0265 31.214 15.4438 31.4448 15.793C31.6816 16.1362 31.9834 16.4233 32.3504 16.6541C32.7173 16.879 33.102 17.0655 33.5045 17.2134C33.9069 17.3555 34.2769 17.4709 34.6142 17.5597L36.4608 18.0568C36.9343 18.1811 37.461 18.3527 38.0411 18.5717C38.627 18.7907 39.1863 19.0896 39.719 19.4684C40.2576 19.8413 40.7015 20.3207 41.0506 20.9066C41.3998 21.4925 41.5744 22.2116 41.5744 23.0639C41.5744 24.0464 41.317 24.9342 40.8021 25.7273C40.2931 26.5204 39.5473 27.1507 38.5649 27.6183C37.5883 28.0858 36.4016 28.3196 35.0048 28.3196C33.7028 28.3196 32.5753 28.1095 31.6224 27.6893C30.6754 27.2691 29.9297 26.6831 29.3852 25.9315C28.8466 25.1798 28.5418 24.3068 28.4707 23.3125H30.7435C30.8027 23.9991 31.0335 24.5672 31.4359 25.017C31.8443 25.4609 32.3592 25.7924 32.9807 26.0114C33.6081 26.2244 34.2828 26.331 35.0048 26.331C35.8453 26.331 36.5999 26.1948 37.2687 25.9226C37.9375 25.6444 38.4672 25.2597 38.8578 24.7685C39.2484 24.2713 39.4438 23.6913 39.4438 23.0284C39.4438 22.4247 39.2751 21.9335 38.9377 21.5547C38.6004 21.1759 38.1565 20.8681 37.606 20.6314C37.0556 20.3946 36.4608 20.1875 35.8216 20.0099L33.5844 19.3707C32.1639 18.9624 31.0394 18.3794 30.2108 17.6218C29.3822 16.8642 28.9679 15.8729 28.9679 14.6477C28.9679 13.6297 29.2431 12.742 29.7935 11.9844C30.3499 11.2209 31.0956 10.629 32.0308 10.2088C32.9718 9.78267 34.0224 9.5696 35.1824 9.5696C36.3543 9.5696 37.3959 9.77971 38.3074 10.1999C39.2189 10.6142 39.9409 11.1824 40.4736 11.9045C41.0122 12.6265 41.2963 13.4463 41.3259 14.3636H39.1952Z" fill="#00FFA3"/>
</g>
<defs>
<clipPath id="clip0_0_1">
<rect width="1728" height="1117" fill="white" transform="translate(-839 -23)"/>
</clipPath>
</defs>
</svg>
